<svg width="32" height="32" viewBox="0 0 32 32" fill="none" xmlns="http://www.w3.org/2000/svg">
  <!-- Dark background -->
  <rect width="32" height="32" rx="8" fill="#000000"/>

  <!-- U - cyan -->
  <path
    d="M4 8 L4 18 Q4 24 10 24 Q16 24 16 18 L16 8 L13 8 L13 18 Q13 21 10 21 Q7 21 7 18 L7 8 Z"
    fill="#06B6D4"
  />

  <!-- R - gold -->
  <path
    d="M18 8 L18 24 L21 24 L21 18 L23 18 L26.5 24 L30 24 L26 17.5 Q29 16.5 29 13 Q29 8 24 8 Z M21 11 L24 11 Q26 11 26 13 Q26 15 24 15 L21 15 Z"
    fill="#D4AF37"
  />
</svg>
