<svg width="1024" height="1024" viewBox="0 0 1024 1024" fill="none" xmlns="http://www.w3.org/2000/svg">
  <defs>
    <radialGradient id="bgGlow" cx="0.7" cy="0.5" r="0.6">
      <stop offset="0%" stop-color="#0d1a1f"/>
      <stop offset="100%" stop-color="#0a0a0f"/>
    </radialGradient>
    <linearGradient id="arcGradient" x1="0%" y1="0%" x2="100%" y2="100%">
      <stop offset="0%" stop-color="#06b6d4" stop-opacity="0.1"/>
      <stop offset="50%" stop-color="#06b6d4" stop-opacity="0.3"/>
      <stop offset="100%" stop-color="#06b6d4" stop-opacity="0.1"/>
    </linearGradient>
  </defs>

  <rect width="1024" height="1024" fill="url(#bgGlow)"/>

  <circle cx="900" cy="512" r="450" stroke="url(#arcGradient)" stroke-width="1.5" fill="none"/>
  <circle cx="920" cy="512" r="380" stroke="url(#arcGradient)" stroke-width="1" fill="none"/>

  <!-- Icon: Document with official stamp -->
  <g transform="translate(200, 80)" stroke="#d4af37" stroke-width="6" stroke-linecap="round" stroke-linejoin="round" fill="none">
    <!-- Document -->
    <path d="M60 40 L60 360 L280 360 L280 110 L210 40 L60 40"/>
    <path d="M210 40 L210 110 L280 110"/>
    <!-- Text lines -->
    <line x1="95" y1="150" x2="245" y2="150"/>
    <line x1="95" y1="190" x2="245" y2="190"/>
    <line x1="95" y1="230" x2="200" y2="230"/>
    <!-- Official stamp (circle with X inside) -->
    <circle cx="200" cy="300" r="50"/>
    <circle cx="200" cy="300" r="38"/>
    <!-- X inside stamp -->
    <line x1="175" y1="275" x2="225" y2="325" stroke-width="5"/>
    <line x1="225" y1="275" x2="175" y2="325" stroke-width="5"/>
  </g>

  <text x="200" y="520" font-family="system-ui, -apple-system, sans-serif" font-size="80" font-weight="600" fill="white">Ликвидация</text>
  <text x="200" y="620" font-family="system-ui, -apple-system, sans-serif" font-size="80" font-weight="600" fill="white">бизнеса</text>
</svg>