<svg width="1024" height="1024" viewBox="0 0 1024 1024" fill="none" xmlns="http://www.w3.org/2000/svg">
  <defs>
    <radialGradient id="bgGlow" cx="0.7" cy="0.5" r="0.6">
      <stop offset="0%" stop-color="#0d1a1f"/>
      <stop offset="100%" stop-color="#0a0a0f"/>
    </radialGradient>
    <linearGradient id="arcGradient" x1="0%" y1="0%" x2="100%" y2="100%">
      <stop offset="0%" stop-color="#06b6d4" stop-opacity="0.1"/>
      <stop offset="50%" stop-color="#06b6d4" stop-opacity="0.3"/>
      <stop offset="100%" stop-color="#06b6d4" stop-opacity="0.1"/>
    </linearGradient>
  </defs>

  <rect width="1024" height="1024" fill="url(#bgGlow)"/>

  <circle cx="900" cy="512" r="450" stroke="url(#arcGradient)" stroke-width="1.5" fill="none"/>
  <circle cx="920" cy="512" r="380" stroke="url(#arcGradient)" stroke-width="1" fill="none"/>

  <!-- Icon: Shield with TM (centered) -->
  <g transform="translate(327, 50)" stroke="#d4af37" stroke-width="6" stroke-linecap="round" stroke-linejoin="round" fill="none">
    <!-- Shield outline -->
    <path d="M180 30 L60 100 L60 240 C60 340 180 410 180 410 C180 410 300 340 300 240 L300 100 Z"/>

    <!-- Letter T -->
    <line x1="100" y1="160" x2="160" y2="160"/>
    <line x1="130" y1="160" x2="130" y2="280"/>

    <!-- Letter M -->
    <line x1="180" y1="280" x2="180" y2="160"/>
    <line x1="180" y1="160" x2="210" y2="220"/>
    <line x1="210" y1="220" x2="240" y2="160"/>
    <line x1="240" y1="160" x2="240" y2="280"/>

    <!-- Small registered circle -->
    <circle cx="280" cy="140" r="20"/>
    <line x1="270" y1="130" x2="270" y2="150"/>
    <line x1="270" y1="130" x2="285" y2="130"/>
    <path d="M270 140 L280 140 C285 140 285 135 280 135 L270 135"/>
    <line x1="278" y1="140" x2="290" y2="150"/>
  </g>

  <text x="200" y="570" font-family="system-ui, -apple-system, sans-serif" font-size="80" font-weight="600" fill="white">Товарный знак</text>
</svg>
