<svg width="1024" height="1024" viewBox="0 0 1024 1024" fill="none" xmlns="http://www.w3.org/2000/svg">
  <defs>
    <radialGradient id="bgGlow" cx="0.7" cy="0.5" r="0.6">
      <stop offset="0%" stop-color="#0d1a1f"/>
      <stop offset="100%" stop-color="#0a0a0f"/>
    </radialGradient>
    <linearGradient id="arcGradient" x1="0%" y1="0%" x2="100%" y2="100%">
      <stop offset="0%" stop-color="#06b6d4" stop-opacity="0.1"/>
      <stop offset="50%" stop-color="#06b6d4" stop-opacity="0.3"/>
      <stop offset="100%" stop-color="#06b6d4" stop-opacity="0.1"/>
    </linearGradient>
  </defs>

  <rect width="1024" height="1024" fill="url(#bgGlow)"/>

  <circle cx="900" cy="512" r="450" stroke="url(#arcGradient)" stroke-width="1.5" fill="none"/>
  <circle cx="920" cy="512" r="380" stroke="url(#arcGradient)" stroke-width="1" fill="none"/>

  <!-- Icon: Document with % and shield -->
  <g transform="translate(180, 100)" stroke="#d4af37" stroke-width="6" stroke-linecap="round" stroke-linejoin="round" fill="none">
    <!-- Document (wider: 200x280) -->
    <path d="M40 40 L40 320 L240 320 L240 110 L170 40 L40 40"/>
    <path d="M170 40 L170 110 L240 110"/>
    <!-- Percentage symbol -->
    <circle cx="100" cy="175" r="28"/>
    <circle cx="180" cy="255" r="28"/>
    <line x1="190" y1="155" x2="90" y2="275" stroke-width="8"/>
    <!-- Shield badge (140px wide) -->
    <path d="M320 150 L250 180 L250 260 C250 315 320 355 320 355 C320 355 390 315 390 260 L390 180 Z"/>
    <!-- Checkmark -->
    <path d="M285 250 L315 280 L360 215" stroke-width="7"/>
  </g>

  <text x="200" y="520" font-family="system-ui, -apple-system, sans-serif" font-size="80" font-weight="600" fill="white">Налоговая</text>
  <text x="200" y="620" font-family="system-ui, -apple-system, sans-serif" font-size="80" font-weight="600" fill="white">защита</text>
</svg>