<svg width="1024" height="1024" viewBox="0 0 1024 1024" fill="none" xmlns="http://www.w3.org/2000/svg">
  <defs>
    <radialGradient id="bgGlow" cx="0.7" cy="0.5" r="0.6">
      <stop offset="0%" stop-color="#0d1a1f"/>
      <stop offset="100%" stop-color="#0a0a0f"/>
    </radialGradient>
    <linearGradient id="arcGradient" x1="0%" y1="0%" x2="100%" y2="100%">
      <stop offset="0%" stop-color="#06b6d4" stop-opacity="0.1"/>
      <stop offset="50%" stop-color="#06b6d4" stop-opacity="0.3"/>
      <stop offset="100%" stop-color="#06b6d4" stop-opacity="0.1"/>
    </linearGradient>
  </defs>

  <rect width="1024" height="1024" fill="url(#bgGlow)"/>

  <circle cx="900" cy="512" r="450" stroke="url(#arcGradient)" stroke-width="1.5" fill="none"/>
  <circle cx="920" cy="512" r="380" stroke="url(#arcGradient)" stroke-width="1" fill="none"/>

  <!-- Icon: Lightbulb with code brackets - centered -->
  <g transform="translate(250, 80)" stroke="#06b6d4" stroke-width="6" stroke-linecap="round" stroke-linejoin="round" fill="none">
    <!-- Lightbulb -->
    <path d="M150 40 C90 40 50 95 50 160 C50 210 80 245 100 275 L100 310 L200 310 L200 275 C220 245 250 210 250 160 C250 95 210 40 150 40"/>
    <!-- Bulb base -->
    <line x1="110" y1="330" x2="190" y2="330"/>
    <line x1="120" y1="350" x2="180" y2="350"/>
    <line x1="130" y1="370" x2="170" y2="370"/>
    <!-- Filament glow lines -->
    <path d="M120 150 L150 115 L180 150" stroke-width="5"/>
    <!-- Code brackets outside -->
    <path d="M20 130 L-5 200 L20 270" stroke-width="8"/>
    <path d="M280 130 L305 200 L280 270" stroke-width="8"/>
  </g>

  <text x="200" y="520" font-family="system-ui, -apple-system, sans-serif" font-size="80" font-weight="600" fill="white">IT-</text>
  <text x="200" y="620" font-family="system-ui, -apple-system, sans-serif" font-size="80" font-weight="600" fill="white">консультация</text>
</svg>