<svg width="1024" height="1024" viewBox="0 0 1024 1024" fill="none" xmlns="http://www.w3.org/2000/svg">
  <defs>
    <radialGradient id="bgGlow" cx="0.7" cy="0.5" r="0.6">
      <stop offset="0%" stop-color="#0d1a1f"/>
      <stop offset="100%" stop-color="#0a0a0f"/>
    </radialGradient>
    <linearGradient id="arcGradient" x1="0%" y1="0%" x2="100%" y2="100%">
      <stop offset="0%" stop-color="#06b6d4" stop-opacity="0.1"/>
      <stop offset="50%" stop-color="#06b6d4" stop-opacity="0.3"/>
      <stop offset="100%" stop-color="#06b6d4" stop-opacity="0.1"/>
    </linearGradient>
  </defs>

  <rect width="1024" height="1024" fill="url(#bgGlow)"/>

  <circle cx="900" cy="512" r="450" stroke="url(#arcGradient)" stroke-width="1.5" fill="none"/>
  <circle cx="920" cy="512" r="380" stroke="url(#arcGradient)" stroke-width="1" fill="none"/>

  <!-- Icon: Shopping cart with sync - centered and clean -->
  <g transform="translate(230, 80)" stroke="#06b6d4" stroke-width="6" stroke-linecap="round" stroke-linejoin="round" fill="none">
    <!-- Shopping cart -->
    <path d="M40 80 L70 80 L90 100 L90 200 L240 200 L260 100 L110 100"/>
    <line x1="90" y1="160" x2="240" y2="160"/>
    <!-- Cart wheels -->
    <circle cx="120" cy="240" r="25"/>
    <circle cx="210" cy="240" r="25"/>
    <!-- Cart handle -->
    <line x1="40" y1="80" x2="70" y2="80" stroke-width="8"/>
    <!-- Sync badge -->
    <circle cx="260" cy="70" r="50"/>
    <!-- Circular arrows -->
    <path d="M235 55 A30 30 0 0 1 285 55" stroke-width="5"/>
    <path d="M280 50 L285 55 L280 65" stroke-width="5"/>
    <path d="M285 85 A30 30 0 0 1 235 85" stroke-width="5"/>
    <path d="M240 80 L235 85 L240 95" stroke-width="5"/>
  </g>

  <text x="200" y="570" font-family="system-ui, -apple-system, sans-serif" font-size="80" font-weight="600" fill="white">Маркетплейсы</text>
</svg>